<svg xmlns="http://www.w3.org/2000/svg" viewBox="0 0 168.34 17.7">
  <title>SAMPLE-B.SVG</title>
  <g>
    <path d="M11.17,12.62A4.44,4.44,0,0,1,9.5,16.28a7.27,7.27,0,0,1-4.65,1.33,10.88,10.88,0,0,1-4.85-1V13.21A20.34,20.34,0,0,0,2.94,14.3a8.67,8.67,0,0,0,2.19.31A3.19,3.19,0,0,0,7,14.16a1.59,1.59,0,0,0,.64-1.36,1.49,1.49,0,0,0-.29-.9,3.21,3.21,0,0,0-.82-.76c-.37-.24-1.11-.62-2.22-1.16A10.71,10.71,0,0,1,1.92,8.57,5.34,5.34,0,0,1,.67,7,4.52,4.52,0,0,1,.2,4.88,4.43,4.43,0,0,1,1.74,1.3,6.4,6.4,0,0,1,6,0,10.12,10.12,0,0,1,8.55.32a16.84,16.84,0,0,1,2.54.89L9.91,4a16.64,16.64,0,0,0-2.26-.78A7.29,7.29,0,0,0,5.88,3,2.35,2.35,0,0,0,4.3,3.5a1.58,1.58,0,0,0-.55,1.26A1.55,1.55,0,0,0,4,5.6a2.76,2.76,0,0,0,.71.69A23.63,23.63,0,0,0,7,7.49a9.11,9.11,0,0,1,3.3,2.3A4.51,4.51,0,0,1,11.17,12.62Z" fill="none"/>
    <path d="M24.76,17.38,23.52,13.3H17.27L16,17.38H12.12l6-17.2h4.45l6.07,17.2Zm-2.11-7.13C21.5,6.56,20.86,4.47,20.71,4s-.25-.86-.31-1.14c-.26,1-1,3.47-2.21,7.41Z" fill="none"/>
    <path d="M38.09,17.38,34,3.94h-.1c.14,2.73.22,4.56.22,5.47v8H30.83V.25h5l4,13.1h.07L44.2.25h4.95V17.38H45.76V9.27c0-.38,0-.82,0-1.32s.06-1.83.16-4h-.11L41.41,17.38Z" fill="none"/>
    <path d="M65.3,5.59a5.25,5.25,0,0,1-1.73,4.23,7.37,7.37,0,0,1-4.92,1.47H57.09v6.09H53.46V.25h5.47a7.24,7.24,0,0,1,4.74,1.34A4.87,4.87,0,0,1,65.3,5.59ZM57.09,8.31h1.2a4,4,0,0,0,2.51-.66,2.34,2.34,0,0,0,.83-1.93,2.37,2.37,0,0,0-.7-1.89,3.28,3.28,0,0,0-2.18-.61H57.09Z" fill="none"/>
    <path d="M68.53,17.38V.25h3.63V14.38h7v3Z" fill="none"/>
    <path d="M92,17.38H82.09V.25H92v3H85.72V7h5.8v3h-5.8v4.42H92Z" fill="none"/>
    <path d="M94.09,12.41V9.48h6.29v2.93Z" fill="none"/>
    <path d="M103.25.25h5.34a10.3,10.3,0,0,1,5.29,1,3.62,3.62,0,0,1,1.64,3.3,4.13,4.13,0,0,1-.72,2.52,2.9,2.9,0,0,1-1.91,1.19V8.4a3.8,3.8,0,0,1,2.35,1.36,4.45,4.45,0,0,1,.72,2.65,4.38,4.38,0,0,1-1.7,3.66,7.35,7.35,0,0,1-4.6,1.31h-6.41ZM106.89,7H109a3.78,3.78,0,0,0,2.13-.46,1.67,1.67,0,0,0,.67-1.51,1.52,1.52,0,0,0-.72-1.41,4.69,4.69,0,0,0-2.28-.43h-1.91Zm0,2.88v4.47h2.36a3.55,3.55,0,0,0,2.22-.57,2.12,2.12,0,0,0,.71-1.76c0-1.43-1-2.14-3-2.14Z" fill="none"/>
    <path d="M118.59,15.7a2,2,0,0,1,.53-1.48,2.12,2.12,0,0,1,1.54-.51,2,2,0,0,1,1.5.52,1.93,1.93,0,0,1,.54,1.47,2,2,0,0,1-.54,1.46,2,2,0,0,1-1.5.54,2.11,2.11,0,0,1-1.53-.53A1.93,1.93,0,0,1,118.59,15.7Z" fill="none"/>
    <path d="M136.34,12.62a4.44,4.44,0,0,1-1.67,3.66A7.29,7.29,0,0,1,130,17.61a10.85,10.85,0,0,1-4.85-1V13.21a20.28,20.28,0,0,0,2.93,1.09,8.74,8.74,0,0,0,2.2.31,3.13,3.13,0,0,0,1.83-.45,1.56,1.56,0,0,0,.64-1.36,1.48,1.48,0,0,0-.28-.9,3.39,3.39,0,0,0-.82-.76c-.37-.24-1.11-.62-2.22-1.16a10.48,10.48,0,0,1-2.36-1.41A5.34,5.34,0,0,1,125.84,7a4.4,4.4,0,0,1-.47-2.1,4.43,4.43,0,0,1,1.54-3.58A6.4,6.4,0,0,1,131.17,0a10.12,10.12,0,0,1,2.55.32,16.37,16.37,0,0,1,2.53.89L135.08,4a16.25,16.25,0,0,0-2.27-.78A7.15,7.15,0,0,0,131.05,3a2.33,2.33,0,0,0-1.58.48,1.58,1.58,0,0,0-.55,1.26,1.55,1.55,0,0,0,.22.84,2.76,2.76,0,0,0,.71.69,22.42,22.42,0,0,0,2.3,1.2,9.2,9.2,0,0,1,3.3,2.3A4.51,4.51,0,0,1,136.34,12.62Z" fill="none"/>
    <path d="M149.21.25h3.67l-5.82,17.13h-4L137.29.25H141l3.23,10.19c.18.6.36,1.3.55,2.11s.31,1.35.36,1.67a31,31,0,0,1,.88-3.78Z" fill="none"/>
    <path d="M161.54,7.76h6.8v8.88a19.73,19.73,0,0,1-3.11.76,20.91,20.91,0,0,1-3,.21,7.56,7.56,0,0,1-5.93-2.28q-2-2.28-2-6.54a8.64,8.64,0,0,1,2.37-6.47A9,9,0,0,1,163.23,0a12.82,12.82,0,0,1,5.09,1.05L167.11,4a8.68,8.68,0,0,0-3.9-.94,4.83,4.83,0,0,0-3.78,1.59A6.14,6.14,0,0,0,158,8.86a6.84,6.84,0,0,0,1.14,4.26,4,4,0,0,0,3.32,1.47,12.22,12.22,0,0,0,2.31-.23V10.78h-3.25Z" fill="none"/>
  </g>
</svg>
