<svg xmlns="http://www.w3.org/2000/svg" class="svg-sprite"><symbol class="svg-sprite" id="sprite-sample-a" viewBox="0 0 168.77 17.7"><title>SAMPLE-A.SVG</title><path d="M11.17 12.62a4.44 4.44 0 01-1.67 3.66 7.27 7.27 0 01-4.65 1.33 10.88 10.88 0 01-4.85-1v-3.4a20.34 20.34 0 002.94 1.09 8.67 8.67 0 002.19.31A3.19 3.19 0 007 14.16a1.59 1.59 0 00.64-1.36 1.49 1.49 0 00-.29-.9 3.21 3.21 0 00-.82-.76c-.37-.24-1.11-.62-2.22-1.16a10.71 10.71 0 01-2.39-1.41A5.34 5.34 0 01.67 7 4.52 4.52 0 01.2 4.88 4.43 4.43 0 011.74 1.3 6.4 6.4 0 016 0a10.12 10.12 0 012.55.32 16.84 16.84 0 012.54.89L9.91 4a16.64 16.64 0 00-2.26-.78A7.29 7.29 0 005.88 3a2.35 2.35 0 00-1.58.5 1.58 1.58 0 00-.55 1.26A1.55 1.55 0 004 5.6a2.76 2.76 0 00.71.69A23.63 23.63 0 007 7.49a9.11 9.11 0 013.3 2.3 4.51 4.51 0 01.87 2.83zm13.59 4.76l-1.24-4.08h-6.25L16 17.38h-3.88l6-17.2h4.45l6.07 17.2zm-2.11-7.13C21.5 6.56 20.86 4.47 20.71 4s-.25-.86-.31-1.14c-.26 1-1 3.47-2.21 7.41zm15.44 7.13L34 3.94h-.1c.14 2.73.22 4.56.22 5.47v8h-3.29V.25h5l4 13.1h.07L44.2.25h4.95v17.13h-3.39V7.95c0-.5.06-1.83.16-4h-.11l-4.4 13.43zM65.3 5.59a5.25 5.25 0 01-1.73 4.23 7.37 7.37 0 01-4.92 1.47h-1.56v6.09h-3.63V.25h5.47a7.24 7.24 0 014.74 1.34 4.87 4.87 0 011.63 4zm-8.21 2.72h1.2a4 4 0 002.51-.66 2.34 2.34 0 00.83-1.93 2.37 2.37 0 00-.7-1.89 3.28 3.28 0 00-2.18-.61h-1.66zm11.44 9.07V.25h3.63v14.13h7v3zm23.47 0h-9.91V.25H92v3h-6.28V7h5.8v3h-5.8v4.42H92zm2.09-4.97V9.48h6.29v2.93zm19.65 4.97l-1.24-4.08h-6.25L105 17.38h-3.9l6-17.2h4.45l6.07 17.2zm-2.11-7.13c-1.15-3.69-1.79-5.78-1.94-6.27s-.24-.86-.31-1.14c-.26 1-1 3.47-2.21 7.41zM119 15.7a2 2 0 01.52-1.49 2.19 2.19 0 011.54-.5 2.07 2.07 0 011.51.52 2 2 0 01.53 1.47 2 2 0 01-.54 1.46 2 2 0 01-1.5.54 2.08 2.08 0 01-1.52-.53 1.93 1.93 0 01-.54-1.47zm17.77-3.08a4.44 4.44 0 01-1.67 3.66 7.25 7.25 0 01-4.65 1.33 10.88 10.88 0 01-4.85-1v-3.4a20.78 20.78 0 002.94 1.09 8.67 8.67 0 002.19.31 3.19 3.19 0 001.84-.45 1.59 1.59 0 00.64-1.36 1.55 1.55 0 00-.28-.9 3.46 3.46 0 00-.83-.76 22.88 22.88 0 00-2.22-1.14 10.71 10.71 0 01-2.36-1.41A5.34 5.34 0 01126.27 7a4.52 4.52 0 01-.47-2.1 4.43 4.43 0 011.54-3.58A6.4 6.4 0 01131.6 0a10.12 10.12 0 012.55.32 16.84 16.84 0 012.54.89L135.52 4a16.7 16.7 0 00-2.27-.78 7.29 7.29 0 00-1.77-.22 2.35 2.35 0 00-1.58.48 1.61 1.61 0 00-.55 1.26 1.64 1.64 0 00.22.84 2.76 2.76 0 00.71.69 24.27 24.27 0 002.31 1.2 9.05 9.05 0 013.29 2.3 4.51 4.51 0 01.89 2.85zM149.65.25h3.67l-5.83 17.13h-4L137.72.25h3.67l3.22 10.19c.18.6.36 1.3.56 2.1s.31 1.36.35 1.67a31.36 31.36 0 01.88-3.77zM162 7.76h6.79v8.88a19.73 19.73 0 01-3.11.76 20.8 20.8 0 01-3 .21 7.53 7.53 0 01-5.92-2.28q-2.06-2.28-2-6.54a8.64 8.64 0 012.37-6.47A9 9 0 01163.66 0a12.78 12.78 0 015.09 1.05L167.54 4a8.68 8.68 0 00-3.9-.94 4.79 4.79 0 00-3.77 1.59 6.1 6.1 0 00-1.42 4.25 6.84 6.84 0 001.14 4.26 4 4 0 003.32 1.47 12.22 12.22 0 002.31-.23v-3.62H162z" fill="none"/></symbol><symbol class="svg-sprite" id="sprite-sample-b" viewBox="0 0 168.34 17.7"><title>SAMPLE-B.SVG</title><path d="M11.17 12.62a4.44 4.44 0 01-1.67 3.66 7.27 7.27 0 01-4.65 1.33 10.88 10.88 0 01-4.85-1v-3.4a20.34 20.34 0 002.94 1.09 8.67 8.67 0 002.19.31A3.19 3.19 0 007 14.16a1.59 1.59 0 00.64-1.36 1.49 1.49 0 00-.29-.9 3.21 3.21 0 00-.82-.76c-.37-.24-1.11-.62-2.22-1.16a10.71 10.71 0 01-2.39-1.41A5.34 5.34 0 01.67 7 4.52 4.52 0 01.2 4.88 4.43 4.43 0 011.74 1.3 6.4 6.4 0 016 0a10.12 10.12 0 012.55.32 16.84 16.84 0 012.54.89L9.91 4a16.64 16.64 0 00-2.26-.78A7.29 7.29 0 005.88 3a2.35 2.35 0 00-1.58.5 1.58 1.58 0 00-.55 1.26A1.55 1.55 0 004 5.6a2.76 2.76 0 00.71.69A23.63 23.63 0 007 7.49a9.11 9.11 0 013.3 2.3 4.51 4.51 0 01.87 2.83zm13.59 4.76l-1.24-4.08h-6.25L16 17.38h-3.88l6-17.2h4.45l6.07 17.2zm-2.11-7.13C21.5 6.56 20.86 4.47 20.71 4s-.25-.86-.31-1.14c-.26 1-1 3.47-2.21 7.41zm15.44 7.13L34 3.94h-.1c.14 2.73.22 4.56.22 5.47v8h-3.29V.25h5l4 13.1h.07L44.2.25h4.95v17.13h-3.39V7.95c0-.5.06-1.83.16-4h-.11l-4.4 13.43zM65.3 5.59a5.25 5.25 0 01-1.73 4.23 7.37 7.37 0 01-4.92 1.47h-1.56v6.09h-3.63V.25h5.47a7.24 7.24 0 014.74 1.34 4.87 4.87 0 011.63 4zm-8.21 2.72h1.2a4 4 0 002.51-.66 2.34 2.34 0 00.83-1.93 2.37 2.37 0 00-.7-1.89 3.28 3.28 0 00-2.18-.61h-1.66zm11.44 9.07V.25h3.63v14.13h7v3zm23.47 0h-9.91V.25H92v3h-6.28V7h5.8v3h-5.8v4.42H92zm2.09-4.97V9.48h6.29v2.93zM103.25.25h5.34a10.3 10.3 0 015.29 1 3.62 3.62 0 011.64 3.3 4.13 4.13 0 01-.72 2.52 2.9 2.9 0 01-1.91 1.19v.14a3.8 3.8 0 012.35 1.36 4.45 4.45 0 01.72 2.65 4.38 4.38 0 01-1.7 3.66 7.35 7.35 0 01-4.6 1.31h-6.41zM106.89 7H109a3.78 3.78 0 002.13-.46 1.67 1.67 0 00.67-1.51 1.52 1.52 0 00-.72-1.41 4.69 4.69 0 00-2.28-.43h-1.91zm0 2.88v4.47h2.36a3.55 3.55 0 002.22-.57 2.12 2.12 0 00.71-1.76c0-1.43-1-2.14-3-2.14zm11.7 5.82a2 2 0 01.53-1.48 2.12 2.12 0 011.54-.51 2 2 0 011.5.52 1.93 1.93 0 01.54 1.47 2 2 0 01-.54 1.46 2 2 0 01-1.5.54 2.11 2.11 0 01-1.53-.53 1.93 1.93 0 01-.54-1.47zm17.75-3.08a4.44 4.44 0 01-1.67 3.66 7.29 7.29 0 01-4.67 1.33 10.85 10.85 0 01-4.85-1v-3.4a20.28 20.28 0 002.93 1.09 8.74 8.74 0 002.2.31 3.13 3.13 0 001.83-.45 1.56 1.56 0 00.64-1.36 1.48 1.48 0 00-.28-.9 3.39 3.39 0 00-.82-.76c-.37-.24-1.11-.62-2.22-1.16a10.48 10.48 0 01-2.36-1.41A5.34 5.34 0 01125.84 7a4.4 4.4 0 01-.47-2.1 4.43 4.43 0 011.54-3.58A6.4 6.4 0 01131.17 0a10.12 10.12 0 012.55.32 16.37 16.37 0 012.53.89L135.08 4a16.25 16.25 0 00-2.27-.78 7.15 7.15 0 00-1.76-.22 2.33 2.33 0 00-1.58.48 1.58 1.58 0 00-.55 1.26 1.55 1.55 0 00.22.84 2.76 2.76 0 00.71.69 22.42 22.42 0 002.3 1.2 9.2 9.2 0 013.3 2.3 4.51 4.51 0 01.89 2.85zM149.21.25h3.67l-5.82 17.13h-4L137.29.25H141l3.23 10.19c.18.6.36 1.3.55 2.11s.31 1.35.36 1.67a31 31 0 01.88-3.78zm12.33 7.51h6.8v8.88a19.73 19.73 0 01-3.11.76 20.91 20.91 0 01-3 .21 7.56 7.56 0 01-5.93-2.28q-2-2.28-2-6.54a8.64 8.64 0 012.37-6.47A9 9 0 01163.23 0a12.82 12.82 0 015.09 1.05L167.11 4a8.68 8.68 0 00-3.9-.94 4.83 4.83 0 00-3.78 1.59A6.14 6.14 0 00158 8.86a6.84 6.84 0 001.14 4.26 4 4 0 003.32 1.47 12.22 12.22 0 002.31-.23v-3.58h-3.25z" fill="none"/></symbol></svg>